<?xml version="1.0" encoding="UTF-8"?>
<svg id="Layer_2" data-name="Layer 2" xmlns="http://www.w3.org/2000/svg" viewBox="0 0 52.86 80.545">
  <defs>
    <style>
      .cls-1 {
        fill: #fff;
        stroke-width: 0px;
      }
    </style>
  </defs>
  <g id="Layer_1-2" data-name="Layer 1">
    <path class="cls-1" d="m52.86,59.245c0,5.867-2.084,10.884-6.25,15.05-4.167,4.167-9.184,6.25-15.05,6.25s-10.884-2.083-15.05-6.25c-4.167-4.166-6.25-9.183-6.25-15.05V18.345c.013-.877-.062-3.58-2.01-5.485-1.151-1.125-2.508-1.535-3.809-1.927-1.822-.549-3.406-.608-4.441-.572C.025,6.907.05,3.454.076,0c1.931.742,6.262,2.703,9.853,7.257,3.523,4.468,4.445,9.039,4.732,11.088v28c4-5.6,9.633-8.4,16.9-8.4,5.933,0,10.965,2.067,15.1,6.2,4.133,4.134,6.2,9.167,6.2,15.1Zm-4.3,0c0-5.666-1.65-10.483-4.95-14.45-3.3-3.965-7.317-5.95-12.05-5.95-4.667,0-8.65,1.984-11.95,5.95-3.3,3.967-4.95,8.785-4.95,14.45,0,5.6,1.65,10.4,4.95,14.4,3.3,4,7.283,6,11.95,6s8.666-2,12-6c3.333-4,5-8.8,5-14.4Z"/>
  </g>
</svg>