<?xml version="1.0" encoding="utf-8"?>
<!-- Generator: Adobe Illustrator 28.0.0, SVG Export Plug-In . SVG Version: 6.00 Build 0)  -->
<svg version="1.1" id="Layer_1" xmlns="http://www.w3.org/2000/svg" xmlns:xlink="http://www.w3.org/1999/xlink" x="0px" y="0px"
	 viewBox="0 0 24 24" style="enable-background:new 0 0 24 24;" xml:space="preserve">
<style type="text/css">
	.st0{fill:#FFFFFF;}
</style>
<path class="st0" d="M6,3C4.4,3,3,4.4,3,6v12c0,1.6,1.4,3,3,3h12c1.6,0,3-1.4,3-3V6c0-1.6-1.4-3-3-3H6z M12,7h2c0,1,1.5,2,2,2v2
	c-0.6,0-1.3-0.3-2-0.7V14c0,1.7-1.3,3-3,3s-3-1.3-3-3s1.3-3,3-3v2c-0.6,0-1,0.4-1,1s0.4,1,1,1s1-0.4,1-1V7z"/>
</svg>
